# xmcd
#
# Track frame offsets:
# 150
# 16252
# 32396
# 46407
# 61510
# 75853
# 92855
# 107705
# 125110
# 138628
# 157951
# 171885
# 189666
# 206076
# 217222
# 233604
# 249630
# 264753
#
# Disc length: 3745 seconds
#
#
# Revision: 0
# Processed by: cddbd v1.5.1PL0 Copyright (c) Steve Scherf et al.
# Submitted via: FreeRIP 2.942 
#
DISCID=ee0e9f12
DTITLE=Banda Kathedral - Cara Metade
DYEAR=2005
DGENRE=Country
TTITLE0=America Menina -B. Kathedral
TTITLE1=Amigos-B. Kathedral
TTITLE2=O Alemão Big Brother-B. Kathedral
TTITLE3=Cara- Metade-B. Kathedral
TTITLE4=Pancadão-B. Kathedral
TTITLE5=Nimguem Vai Te Amar Como Te Amei-B. Kathedral
TTITLE6=Sofá Da Sala-B. Kathedral
TTITLE7=Que Maquina-B. Kathedral
TTITLE8=Amantes Do Desejo-B. Kathedral
TTITLE9=Meu Amor Adeus-B. Kathedral
TTITLE10=El Bandolero-B. Kathedral
TTITLE11=Volta Pra Mim-B. Kathedral
TTITLE12=Copo De Bebida-B. Kathedral
TTITLE13=No Balanço Da Sanfona-B. Kathedral
TTITLE14=Era Tua Namorada-B. Kathedral
TTITLE15=America Menina- Playback
TTITLE16=Cara- Metade- Playback
TTITLE17=Amigos- Playback
EXTD=
EXTT0=
EXTT1=
EXTT2=
EXTT3=
EXTT4=
EXTT5=
EXTT6=
EXTT7=
EXTT8=
EXTT9=
EXTT10=
EXTT11=
EXTT12=
EXTT13=
EXTT14=
EXTT15=
EXTT16=
EXTT17=
PLAYORDER=
